<?xml version="1.0" encoding="utf-8"?>
<!-- Generator: Adobe Illustrator 21.0.2, SVG Export Plug-In . SVG Version: 6.00 Build 0)  -->
<svg version="1.1" xmlns="http://www.w3.org/2000/svg" xmlns:xlink="http://www.w3.org/1999/xlink" x="0px" y="0px"
	 viewBox="0 0 30 30" style="enable-background:new 0 0 30 30;" xml:space="preserve">
<style type="text/css">
	.st0{display:none;}
	.st1{display:inline;fill:#231815;}
	.st2{display:inline;fill:#FFFFFF;}
	.st3{fill:#FFFFFF;}
	.st4{fill:none;stroke:#FFFFFF;stroke-width:0.75;stroke-miterlimit:10;}
	.st5{display:inline;}
	.st6{fill-rule:evenodd;clip-rule:evenodd;fill:#FFFFFF;}
	.st7{clip-path:url(#SVGID_2_);fill:#FFFFFF;}
</style>
<g id="レイヤー_2" class="st0">
	<rect class="st1" width="30" height="30"/>
</g>
<g id="sns" class="st0">
	<path class="st2" d="M16.1,22.3v-6.7h2.3l0.3-2.6h-2.6v-1.7c0-0.8,0.2-1.3,1.3-1.3h1.4V7.7c-0.2,0-1.1-0.1-2-0.1
		c-2,0-3.4,1.2-3.4,3.5V13h-2.3v2.6h2.3v6.7H16.1z"/>
</g>
<g id="twitter">
	<g>
		<g>
			<path class="st3" d="M1062,4024.2c-0.2,0.3-0.4,0.6-0.7,0.9c-0.2,0.2-0.5,0.5-0.8,0.7v0.1v0.1c0,0,0,0.1,0,0.1v0.1
				c0,1-0.2,2.1-0.6,3.1c-0.4,1-0.9,2-1.6,2.8c-0.7,0.9-1.6,1.6-2.7,2.1c-1,0.5-2.2,0.8-3.5,0.8c-0.8,0-1.6-0.1-2.4-0.4
				c-0.8-0.2-1.5-0.6-2.1-1c0,0,0.1,0,0.2,0c0.2,0,0.3,0,0.3,0h0.2c0.7,0,1.3-0.1,1.9-0.3c0.6-0.2,1.1-0.5,1.7-1
				c-0.6,0-1.2-0.2-1.7-0.6c-0.5-0.4-0.9-0.9-1-1.5c0.1,0,0.2,0,0.3,0h0.1c0,0,0.1,0,0.1,0c0.1,0,0.2,0,0.2,0c0.1,0,0.2,0,0.4-0.1
				c0,0,0,0,0.1,0c0,0,0.1,0,0.1,0c-0.7-0.1-1.2-0.5-1.7-1.1c-0.4-0.6-0.7-1.2-0.7-1.9v0v0v0c0.2,0.1,0.4,0.2,0.6,0.3
				c0.2,0.1,0.5,0.1,0.7,0.1c-0.4-0.3-0.7-0.7-0.9-1.1c-0.2-0.4-0.4-0.9-0.4-1.5c0-0.3,0-0.6,0.1-0.8c0-0.2,0.1-0.4,0.3-0.7
				c0.7,1,1.6,1.7,2.6,2.2c1,0.6,2.2,0.9,3.3,1c0-0.2,0-0.3,0-0.3c0-0.1,0-0.3,0-0.3c0-0.8,0.3-1.6,0.9-2.2c0.6-0.6,1.3-0.9,2.1-0.9
				c0.4,0,0.8,0.1,1.2,0.3c0.4,0.2,0.7,0.4,1,0.7c0.3-0.1,0.6-0.2,1-0.3c0.3-0.1,0.6-0.3,0.9-0.4c-0.1,0.4-0.3,0.7-0.5,1
				c-0.2,0.3-0.5,0.5-0.8,0.7c0.3,0,0.6-0.1,0.9-0.2C1061.4,4024.5,1061.7,4024.4,1062,4024.2z"/>
		</g>
		<circle class="st4" cx="1054" cy="4027.9" r="15"/>
	</g>
	<g>
		<path class="st3" d="M23,11.4c-0.2,0.3-0.4,0.6-0.7,0.9c-0.2,0.2-0.5,0.5-0.8,0.7V13v0.1c0,0,0,0.1,0,0.1v0.1c0,1-0.2,2.1-0.6,3.1
			c-0.4,1-0.9,2-1.6,2.8c-0.7,0.9-1.6,1.6-2.7,2.1c-1,0.5-2.2,0.8-3.5,0.8c-0.8,0-1.6-0.1-2.4-0.4c-0.8-0.2-1.5-0.6-2.1-1
			c0,0,0.1,0,0.2,0c0.2,0,0.3,0,0.3,0h0.2c0.7,0,1.3-0.1,1.9-0.3c0.6-0.2,1.1-0.5,1.7-1c-0.6,0-1.2-0.2-1.7-0.6
			c-0.5-0.4-0.9-0.9-1-1.5c0.1,0,0.2,0,0.3,0h0.1c0,0,0.1,0,0.1,0c0.1,0,0.2,0,0.2,0c0.1,0,0.2,0,0.4-0.1c0,0,0,0,0.1,0
			c0,0,0.1,0,0.1,0c-0.7-0.1-1.2-0.5-1.7-1.1c-0.4-0.6-0.7-1.2-0.7-1.9v0v0v0c0.2,0.1,0.4,0.2,0.6,0.3c0.2,0.1,0.5,0.1,0.7,0.1
			c-0.4-0.3-0.7-0.7-0.9-1.1c-0.2-0.4-0.4-0.9-0.4-1.5c0-0.3,0-0.6,0.1-0.8c0-0.2,0.1-0.4,0.3-0.7c0.7,1,1.6,1.7,2.6,2.2
			c1,0.6,2.2,0.9,3.3,1c0-0.2,0-0.3,0-0.3c0-0.1,0-0.3,0-0.3c0-0.8,0.3-1.6,0.9-2.2c0.6-0.6,1.3-0.9,2.1-0.9c0.4,0,0.8,0.1,1.2,0.3
			c0.4,0.2,0.7,0.4,1,0.7c0.3-0.1,0.6-0.2,1-0.3c0.3-0.1,0.6-0.3,0.9-0.4c-0.1,0.4-0.3,0.7-0.5,1c-0.2,0.3-0.5,0.5-0.8,0.7
			c0.3,0,0.6-0.1,0.9-0.2C22.4,11.6,22.7,11.5,23,11.4z"/>
	</g>
</g>
<g id="git" class="st0">
	<g class="st5">
		<g>
			<path class="st3" d="M17.5,16c0.3,0,0.5,0.1,0.7,0.4c0.2,0.3,0.3,0.6,0.3,1c0,0.4-0.1,0.7-0.3,1c-0.2,0.3-0.4,0.4-0.7,0.4
				c-0.3,0-0.5-0.1-0.7-0.4c-0.2-0.3-0.3-0.6-0.3-1c0-0.4,0.1-0.7,0.3-1C17,16.2,17.3,16,17.5,16 M21.1,12.3
				c0.8,0.8,1.2,1.9,1.2,3.1c0,0.8-0.1,1.5-0.3,2.1c-0.2,0.6-0.4,1.1-0.7,1.5c-0.3,0.4-0.6,0.7-1,1c-0.4,0.3-0.8,0.5-1.1,0.7
				c-0.3,0.1-0.7,0.2-1.2,0.3c-0.4,0.1-0.8,0.1-1,0.1c-0.2,0-0.5,0-0.7,0c-0.1,0-0.3,0-0.6,0c-0.3,0-0.6,0-0.8,0c-0.2,0-0.5,0-0.8,0
				c-0.3,0-0.5,0-0.6,0c-0.3,0-0.5,0-0.7,0c-0.2,0-0.5-0.1-1-0.1c-0.4-0.1-0.8-0.2-1.2-0.3c-0.3-0.1-0.7-0.4-1.1-0.7
				c-0.4-0.3-0.7-0.6-1-1c-0.3-0.4-0.5-0.9-0.7-1.5c-0.2-0.6-0.3-1.3-0.3-2.1c0-1.2,0.4-2.2,1.2-3.1c-0.1,0-0.1-0.5,0-1.3
				c0.1-0.8,0.2-1.6,0.5-2.2c1,0.1,2.2,0.7,3.6,1.7c0.5-0.1,1.1-0.2,2-0.2c0.9,0,1.6,0.1,2,0.2c0.7-0.4,1.3-0.8,1.9-1.1
				c0.6-0.3,1.1-0.4,1.3-0.5l0.4-0.1c0.3,0.7,0.5,1.4,0.5,2.2C21.2,11.8,21.2,12.3,21.1,12.3 M15,20.5c1.8,0,3.1-0.2,4-0.6
				c0.9-0.4,1.4-1.3,1.4-2.6c0-0.8-0.3-1.4-0.9-1.9c-0.3-0.3-0.6-0.4-1-0.5c-0.4-0.1-1-0.1-1.8,0c-0.8,0.1-1.4,0.1-1.7,0.1
				c-0.4,0-0.8,0-1.4-0.1c-0.5,0-1-0.1-1.3-0.1c-0.3,0-0.6,0-1,0.1c-0.4,0.1-0.7,0.2-0.9,0.4c-0.5,0.5-0.8,1.1-0.8,1.9
				c0,1.3,0.4,2.2,1.3,2.6C11.9,20.3,13.2,20.5,15,20.5L15,20.5 M12.5,16c0.3,0,0.5,0.1,0.7,0.4c0.2,0.3,0.3,0.6,0.3,1
				c0,0.4-0.1,0.7-0.3,1c-0.2,0.3-0.4,0.4-0.7,0.4c-0.3,0-0.5-0.1-0.7-0.4c-0.2-0.3-0.3-0.6-0.3-1c0-0.4,0.1-0.7,0.3-1
				C11.9,16.2,12.2,16,12.5,16"/>
		</g>
	</g>
</g>
<g id="fillicar" class="st0">
	<g class="st5">
		<path class="st6" d="M21.9,14.9c0,1.7-1.4,3.2-3.1,3.2c-1.7,0-3.1-1.4-3.1-3.2c0-1.7,1.4-3.2,3.1-3.2
			C20.6,11.8,21.9,13.2,21.9,14.9 M14.2,14.9c0,1.7-1.4,3.2-3.1,3.2c-1.7,0-3.1-1.4-3.1-3.2c0-1.7,1.4-3.2,3.1-3.2
			C12.8,11.8,14.2,13.2,14.2,14.9"/>
	</g>
</g>
<g id="youtube" class="st0">
	<g class="st5">
		<defs>
			<path id="SVGID_1_" d="M11.2,18.4l0-2.5l0.5,0l0.5,0l0-0.4l0-0.4l-1.4,0l-1.4,0v0.4v0.4l0.5,0l0.5,0l0,2.5c0,1.4,0,2.5,0,2.5
				c0,0,0.1,0,0.4,0l0.4,0L11.2,18.4L11.2,18.4z M19.1,18.3c0-0.1,0-0.6,0-0.7c0.1-0.2,0.2-0.3,0.4-0.3c0.2,0,0.3,0.1,0.3,0.2
				c0,0.1,0,0.1,0.1,0.5l0,0.4h-0.4C19.1,18.3,19.1,18.3,19.1,18.3L19.1,18.3L19.1,18.3z M19.8,21c0.4-0.1,0.7-0.4,0.8-0.8
				c0-0.1,0-0.3,0-0.4l0-0.3h-0.4h-0.4l0,0.3c0,0.3,0,0.4-0.2,0.5c-0.1,0.1-0.3,0.1-0.5,0c-0.2-0.1-0.2-0.3-0.2-0.9l0-0.4l0.8,0
				l0.8,0l0-0.6c0-0.7,0-0.8-0.1-1.1c-0.2-0.5-0.9-0.7-1.4-0.5c-0.4,0.1-0.6,0.4-0.7,0.8c0,0.1,0,0.3,0,1.3c0,1.3,0,1.3,0.1,1.6
				C18.7,20.9,19.3,21.1,19.8,21L19.8,21L19.8,21z M16.7,20.2c0,0,0.1-0.1,0.1-0.2c0-0.1,0-0.2,0-1.3c0-1.2,0-1.2,0-1.3
				c-0.1-0.2-0.3-0.2-0.6,0l-0.1,0.1v1.3v1.3l0.1,0.1C16.4,20.3,16.6,20.3,16.7,20.2L16.7,20.2L16.7,20.2z M17.2,21
				c0.1,0,0.3-0.2,0.3-0.3c0.1-0.3,0.1-0.3,0.1-1.9c0-1.3,0-1.5,0-1.6c-0.1-0.4-0.3-0.6-0.7-0.6c-0.2,0-0.4,0.1-0.6,0.3
				c-0.1,0.1-0.2,0.2-0.2,0.2c0,0,0-0.4,0-1v-1h-0.4h-0.4V18V21h0.4h0.4v-0.2c0-0.1,0-0.2,0-0.2c0,0,0.1,0.1,0.2,0.2
				C16.6,21,16.8,21.1,17.2,21L17.2,21L17.2,21z M13.2,21c0.1-0.1,0.3-0.2,0.5-0.3c0.1-0.1,0.1-0.1,0.1-0.1c0,0,0,0.1,0,0.2V21h0.4
				h0.4v-2.2v-2.2h-0.4h-0.4v1.7V20l-0.2,0.2c-0.1,0.1-0.2,0.2-0.3,0.2c-0.1,0-0.2,0-0.3-0.1c0-0.1,0-0.1,0-1.8l0-1.8h-0.4h-0.4v1.9
				c0,2,0,2.1,0.1,2.3C12.6,21,12.9,21.1,13.2,21L13.2,21L13.2,21z M13.5,22.8c-0.5,0-1.1,0-1.3,0c-1.4-0.1-2.4-0.1-2.6-0.1
				c-0.3-0.1-0.6-0.2-0.8-0.5c-0.3-0.4-0.5-0.8-0.5-1.5c-0.2-1.6-0.2-3.4,0-4.9c0.1-0.7,0.3-1.1,0.6-1.5c0.2-0.2,0.4-0.3,0.6-0.4
				c0.5-0.1,4.7-0.2,7.2-0.2c1.5,0,3,0.1,3.5,0.1c0.5,0.1,0.9,0.3,1.2,0.9c0.2,0.4,0.3,0.7,0.3,1.7c0.1,0.8,0.1,1.2,0.1,2.1
				c0,1.1-0.1,2-0.2,2.5c-0.1,0.6-0.4,1-0.7,1.3c-0.3,0.2-0.5,0.3-0.9,0.3c-0.1,0-0.3,0-0.4,0c-0.2,0-1.5,0.1-2.2,0.1
				C16.4,22.8,14.5,22.8,13.5,22.8L13.5,22.8z M12.2,13.1c0,0,0-1.7,0-2c0-0.3,0-0.6-0.3-1.2c-0.1-0.2-0.2-0.6-0.3-0.9
				c-0.6-2-0.6-1.9-0.5-1.9c0.4,0,0.9,0,0.9,0c0,0,0.1,0.5,0.3,1.1c0.2,0.6,0.3,1.1,0.3,1.1c0,0,0.1-0.3,0.2-0.8
				c0.2-0.9,0.4-1.4,0.4-1.4c0,0,0.1,0,0.5,0l0.4,0l0,0.1c0,0.1-0.3,1-0.6,2c0,0.1-0.1,0.4-0.2,0.6c-0.1,0.2-0.2,0.5-0.2,0.6
				l-0.1,0.2v1.2c0,1.1,0,1.2,0,1.2C13,13.2,12.2,13.2,12.2,13.1L12.2,13.1z M17.6,13.2c-0.2,0-0.3-0.1-0.4-0.3
				c-0.1-0.2-0.1-0.2-0.1-2.3V8.7h0.4H18l0,1.8c0,1.9,0,1.9,0.1,1.9c0.1,0,0.2,0,0.4-0.2l0.1-0.1l0-1.7l0-1.7l0.4,0l0.4,0v2.2v2.2
				l-0.1,0c-0.1,0-0.7,0-0.8,0c0,0,0,0,0-0.2v-0.2l-0.1,0.1C18.2,13.1,17.9,13.2,17.6,13.2L17.6,13.2L17.6,13.2z M15.5,12.4
				c0.1-0.1,0.1-0.1,0.2-1.4c0-1,0-1.1,0-1.3c0-0.2-0.1-0.3-0.2-0.3c-0.2,0-0.3,0.1-0.4,0.2c0,0.1,0,2.3,0,2.5
				c0,0.1,0.1,0.2,0.2,0.2C15.3,12.4,15.5,12.4,15.5,12.4L15.5,12.4L15.5,12.4z M15.2,13.2c-0.4,0-0.7-0.3-0.9-0.6
				c-0.2-0.3-0.2-0.5-0.2-1.8c0-1,0-1.1,0.1-1.3c0.1-0.4,0.3-0.6,0.6-0.7c0.4-0.2,0.8-0.2,1.2,0.1c0.2,0.2,0.4,0.4,0.5,0.7
				c0,0.2,0,0.3,0,1.3c0,1.3,0,1.4-0.1,1.6c-0.1,0.3-0.4,0.5-0.7,0.6C15.5,13.2,15.3,13.2,15.2,13.2L15.2,13.2L15.2,13.2z
				 M15.2,13.2"/>
		</defs>
		<clipPath id="SVGID_2_">
			<use xlink:href="#SVGID_1_"  style="overflow:visible;"/>
		</clipPath>
		<rect x="5.1" y="4.1" class="st7" width="19.9" height="21.7"/>
	</g>
</g>
</svg>
