<?xml version="1.0" encoding="utf-8"?>
<!-- Generator: Adobe Illustrator 21.0.2, SVG Export Plug-In . SVG Version: 6.00 Build 0)  -->
<svg version="1.1" id="レイヤー_1" xmlns="http://www.w3.org/2000/svg" xmlns:xlink="http://www.w3.org/1999/xlink" x="0px"
	 y="0px" viewBox="0 0 40 40" style="enable-background:new 0 0 40 40;" xml:space="preserve">
<style type="text/css">
	.st0{fill:#B7183F;}
</style>
<g>
	<path class="st0" d="M20,0C11.7,0,5,6.7,5,15c0,3.4,1.1,6.5,3,9l12,16l12-16c1.9-2.5,3-5.6,3-9C35,6.7,28.3,0,20,0L20,0z M20,25
		c-5.5,0-10-4.5-10-10c0-5.5,4.5-10,10-10c5.5,0,10,4.5,10,10C30,20.5,25.5,25,20,25L20,25z M20,25"/>
</g>
</svg>
