<?xml version="1.0" encoding="utf-8"?>
<!-- Generator: Adobe Illustrator 21.0.2, SVG Export Plug-In . SVG Version: 6.00 Build 0)  -->
<svg version="1.1" id="レイヤー_1" xmlns="http://www.w3.org/2000/svg" xmlns:xlink="http://www.w3.org/1999/xlink" x="0px"
	 y="0px" viewBox="0 0 40 40" style="enable-background:new 0 0 40 40;" xml:space="preserve">
<style type="text/css">
	.st0{fill:#B7183F;}
</style>
<g>
	<path class="st0" d="M7.4,13c0,0.7,0.6,1.3,1.3,1.3h3.6c0.7,0,1.3-0.6,1.3-1.3V9.4c0-0.7-0.6-1.3-1.3-1.3H8.6
		c-0.7,0-1.3,0.6-1.3,1.3V13z M7.4,13"/>
	<path class="st0" d="M17,13c0,0.7,0.6,1.3,1.3,1.3h3.6c0.7,0,1.3-0.6,1.3-1.3V9.4c0-0.7-0.6-1.3-1.3-1.3h-3.6
		c-0.7,0-1.3,0.6-1.3,1.3V13z M17,13"/>
	<path class="st0" d="M17,21.3c0,0.7,0.6,1.3,1.3,1.3h3.6c0.7,0,1.3-0.6,1.3-1.3v-3.6c0-0.7-0.6-1.3-1.3-1.3h-3.6
		c-0.7,0-1.3,0.6-1.3,1.3V21.3z M17,21.3"/>
	<path class="st0" d="M7.4,21.3c0,0.7,0.6,1.3,1.3,1.3h3.6c0.7,0,1.3-0.6,1.3-1.3v-3.6c0-0.7-0.6-1.3-1.3-1.3H8.6
		c-0.7,0-1.3,0.6-1.3,1.3V21.3z M7.4,21.3"/>
	<path class="st0" d="M7.4,30c0,0.7,0.6,1.3,1.3,1.3h3.6c0.7,0,1.3-0.6,1.3-1.3v-3.6c0-0.7-0.6-1.3-1.3-1.3H8.6
		c-0.7,0-1.3,0.6-1.3,1.3V30z M7.4,30"/>
	<path class="st0" d="M35.2,2H4.8C3,2,1.4,3.5,1.4,5.4v29.2C1.4,36.4,3,38,4.8,38h30.4c1.9,0,3.4-1.5,3.4-3.4V5.4
		C38.6,3.5,37.1,2,35.2,2L35.2,2z M35.7,34.6c0,0.3-0.2,0.5-0.5,0.5h-11v-8.5c0-1.4-1.1-2.6-2.6-2.6h-3.2c-1.4,0-2.6,1.1-2.6,2.6
		v8.5h-11c-0.3,0-0.5-0.2-0.5-0.5V5.4c0-0.3,0.2-0.5,0.5-0.5h30.4c0.3,0,0.5,0.2,0.5,0.5V34.6z M35.7,34.6"/>
	<path class="st0" d="M32.7,9.4c0-0.7-0.6-1.3-1.3-1.3h-3.6c-0.7,0-1.3,0.6-1.3,1.3V13c0,0.7,0.6,1.3,1.3,1.3h3.6
		c0.7,0,1.3-0.6,1.3-1.3V9.4z M32.7,9.4"/>
	<path class="st0" d="M26.6,21.3c0,0.7,0.6,1.3,1.3,1.3h3.6c0.7,0,1.3-0.6,1.3-1.3v-3.6c0-0.7-0.6-1.3-1.3-1.3h-3.6
		c-0.7,0-1.3,0.6-1.3,1.3V21.3z M26.6,21.3"/>
	<path class="st0" d="M26.6,30c0,0.7,0.6,1.3,1.3,1.3h3.6c0.7,0,1.3-0.6,1.3-1.3v-3.6c0-0.7-0.6-1.3-1.3-1.3h-3.6
		c-0.7,0-1.3,0.6-1.3,1.3V30z M26.6,30"/>
</g>
</svg>
