<svg version="1.1" id="Layer_1" xmlns="http://www.w3.org/2000/svg" xmlns:xlink="http://www.w3.org/1999/xlink" x="0px" y="0px" viewBox="0 0 40 40" style="enable-background:new 0 0 40 40;" xml:space="preserve" width="50" height="50">
<g>
	<path style="fill:#8CD3DF;" d="M4.342,21.046c-1.208,0-2.286-0.767-2.683-1.909c-0.25-0.717-0.205-1.488,0.126-2.171&#10;&#9;&#9;c0.33-0.683,0.907-1.196,1.624-1.446l27.305-9.496c0.303-0.105,0.616-0.159,0.934-0.159c1.207,0,2.286,0.767,2.683,1.909&#10;&#9;&#9;c0.25,0.717,0.205,1.488-0.126,2.171c-0.33,0.683-0.907,1.196-1.624,1.446L5.275,20.888C4.973,20.993,4.659,21.046,4.342,21.046z"/>
	<g>
		<path style="fill:#5F9099;" d="M31.647,6.366L31.647,6.366c0.995,0,1.884,0.632,2.211,1.573c0.424,1.219-0.223,2.556-1.442,2.98&#10;&#9;&#9;&#9;L5.111,20.416c-0.25,0.087-0.508,0.131-0.769,0.131c-0.995,0-1.884-0.632-2.211-1.573c-0.424-1.219,0.223-2.556,1.442-2.98&#10;&#9;&#9;&#9;l27.305-9.496C31.127,6.41,31.386,6.366,31.647,6.366 M31.647,5.366c-0.364,0-0.734,0.06-1.098,0.186L3.245,15.048&#10;&#9;&#9;&#9;c-1.743,0.606-2.665,2.51-2.058,4.253c0.48,1.38,1.773,2.245,3.156,2.245c0.364,0,0.734-0.06,1.098-0.186l27.305-9.496&#10;&#9;&#9;&#9;c1.743-0.606,2.664-2.51,2.058-4.253C34.323,6.231,33.03,5.366,31.647,5.366L31.647,5.366z"/>
	</g>
</g>
<g>
	<path style="fill:#DD215A;" d="M8.353,34.134c-1.207,0-2.286-0.767-2.683-1.909c-0.25-0.717-0.205-1.488,0.126-2.171&#10;&#9;&#9;c0.33-0.683,0.907-1.196,1.624-1.446l27.305-9.496c0.303-0.105,0.616-0.158,0.934-0.158c1.208,0,2.286,0.767,2.683,1.909&#10;&#9;&#9;c0.25,0.717,0.205,1.488-0.126,2.171c-0.33,0.683-0.907,1.196-1.624,1.446L9.286,33.975C8.983,34.08,8.67,34.134,8.353,34.134z"/>
	<g>
		<path style="fill:#A81945;" d="M35.658,19.454L35.658,19.454c0.995,0,1.884,0.632,2.211,1.573c0.424,1.219-0.223,2.556-1.442,2.98&#10;&#9;&#9;&#9;L9.122,33.503c-0.25,0.087-0.508,0.131-0.769,0.131c-0.995,0-1.884-0.632-2.211-1.573c-0.424-1.219,0.223-2.556,1.442-2.98&#10;&#9;&#9;&#9;l27.305-9.496C35.138,19.498,35.397,19.454,35.658,19.454 M35.658,18.454c-0.364,0-0.734,0.06-1.098,0.186L7.256,28.136&#10;&#9;&#9;&#9;c-1.743,0.606-2.664,2.51-2.058,4.253v0c0.48,1.38,1.773,2.245,3.156,2.245c0.364,0,0.734-0.06,1.098-0.186l27.305-9.496&#10;&#9;&#9;&#9;c1.743-0.606,2.665-2.51,2.058-4.253C38.334,19.318,37.041,18.453,35.658,18.454L35.658,18.454z"/>
	</g>
</g>
<g>
	<path style="fill:#EBB23D;" d="M31.291,34.489c-1.208,0-2.286-0.767-2.683-1.909L19.112,5.276c-0.515-1.48,0.271-3.103,1.75-3.617&#10;&#9;&#9;C21.165,1.554,21.479,1.5,21.796,1.5c1.208,0,2.287,0.767,2.684,1.909l9.495,27.304c0.25,0.717,0.205,1.488-0.126,2.171&#10;&#9;&#9;c-0.33,0.683-0.907,1.196-1.624,1.446C31.922,34.436,31.608,34.489,31.291,34.489z"/>
	<g>
		<path style="fill:#B58A2F;" d="M21.796,2L21.796,2c0.995,0,1.884,0.632,2.211,1.573l9.496,27.305&#10;&#9;&#9;&#9;c0.424,1.219-0.223,2.556-1.442,2.98c-0.25,0.087-0.508,0.131-0.769,0.131c-0.995,0-1.884-0.632-2.211-1.573L19.584,5.111&#10;&#9;&#9;&#9;c-0.205-0.591-0.169-1.226,0.104-1.789c0.272-0.563,0.748-0.986,1.339-1.192C21.276,2.044,21.535,2,21.796,2 M21.796,1&#10;&#9;&#9;&#9;c-0.364,0-0.734,0.06-1.098,0.186c-1.743,0.606-2.665,2.51-2.058,4.253l9.496,27.305c0.48,1.38,1.773,2.245,3.156,2.245&#10;&#9;&#9;&#9;c0.364,0,0.734-0.06,1.098-0.186c1.743-0.606,2.665-2.51,2.058-4.253L24.952,3.245C24.472,1.865,23.179,1,21.796,1L21.796,1z"/>
	</g>
</g>
<g>
	
		<rect x="25.865" y="21.365" transform="matrix(0.9445 -0.3285 0.3285 0.9445 -6.3586 10.7733)" style="fill:#CD171D;" width="5.683" height="5.682"/>
	<g>
		<path style="fill:#9C1116;" d="M30.149,21.226l1.538,4.423l-4.423,1.538l-1.538-4.423L30.149,21.226 M30.765,19.953l-6.312,2.195&#10;&#9;&#9;&#9;l2.195,6.312l6.312-2.195L30.765,19.953L30.765,19.953z"/>
	</g>
</g>
<g>
	
		<rect x="21.372" y="8.446" transform="matrix(0.9445 -0.3285 0.3285 0.9445 -2.3639 8.5804)" style="fill:#7F9331;" width="5.682" height="5.682"/>
	<g>
		<path style="fill:#657527;" d="M25.656,8.306l1.538,4.423l-4.423,1.538l-1.538-4.423L25.656,8.306 M26.272,7.033L19.96,9.228&#10;&#9;&#9;&#9;l2.195,6.312l6.312-2.195L26.272,7.033L26.272,7.033z"/>
	</g>
</g>
<g>
	<path style="fill:#66C1A0;" d="M18.204,38.5c-1.208,0-2.287-0.767-2.684-1.909L6.025,9.287C5.775,8.569,5.82,7.798,6.151,7.115&#10;&#9;&#9;c0.33-0.683,0.907-1.196,1.624-1.446c0.303-0.105,0.616-0.159,0.934-0.159c1.208,0,2.286,0.767,2.683,1.909l9.496,27.305&#10;&#9;&#9;c0.515,1.48-0.271,3.103-1.75,3.617C18.835,38.446,18.521,38.5,18.204,38.5z"/>
	<g>
		<path style="fill:#4E917A;" d="M8.709,6.011L8.709,6.011c0.995,0,1.884,0.632,2.211,1.573l9.496,27.305&#10;&#9;&#9;&#9;c0.424,1.219-0.223,2.556-1.442,2.98C18.724,37.956,18.465,38,18.204,38c-0.995,0-1.884-0.632-2.211-1.573L6.497,9.122&#10;&#9;&#9;&#9;C6.292,8.531,6.329,7.896,6.601,7.333C6.873,6.77,7.349,6.347,7.94,6.142C8.189,6.055,8.448,6.011,8.709,6.011 M8.709,5.011&#10;&#9;&#9;&#9;c-0.364,0-0.734,0.06-1.098,0.186c-1.743,0.606-2.665,2.51-2.058,4.253l9.496,27.305c0.48,1.38,1.773,2.245,3.156,2.245&#10;&#9;&#9;&#9;c0.364,0,0.734-0.06,1.098-0.186c1.743-0.606,2.665-2.51,2.058-4.253L11.864,7.256C11.385,5.876,10.092,5.011,8.709,5.011&#10;&#9;&#9;&#9;L8.709,5.011z"/>
	</g>
</g>
<g>
	
		<rect x="12.945" y="25.865" transform="matrix(0.9445 -0.3285 0.3285 0.9445 -8.5538 6.7789)" style="fill:#852759;" width="5.682" height="5.682"/>
	<g>
		<path style="fill:#551537;" d="M17.229,25.726l1.538,4.423l-4.423,1.538l-1.538-4.423L17.229,25.726 M17.845,24.453l-6.312,2.195&#10;&#9;&#9;&#9;l2.195,6.312l6.312-2.195L17.845,24.453L17.845,24.453z"/>
	</g>
</g>
<g>
	
		<rect x="8.452" y="12.946" transform="matrix(0.9445 -0.3284 0.3284 0.9445 -4.5585 4.5851)" style="fill:#3BA08D;" width="5.683" height="5.682"/>
	<g>
		<path style="fill:#318575;" d="M12.736,12.806l1.538,4.423l-4.423,1.538l-1.538-4.423L12.736,12.806 M13.352,11.533L7.04,13.728&#10;&#9;&#9;&#9;l2.195,6.312l6.312-2.195L13.352,11.533L13.352,11.533z"/>
	</g>
</g>
</svg>