<?xml version="1.0" encoding="utf-8"?>
<!-- Generator: Adobe Illustrator 21.0.2, SVG Export Plug-In . SVG Version: 6.00 Build 0)  -->
<svg version="1.1" id="レイヤー_1" xmlns="http://www.w3.org/2000/svg" xmlns:xlink="http://www.w3.org/1999/xlink" x="0px"
	 y="0px" viewBox="0 0 46 46" style="enable-background:new 0 0 46 46;" xml:space="preserve">
<style type="text/css">
	.st0{fill:#B7183F;}
</style>
<g>
	<path class="st0" d="M44.2,14c-1.2-2.8-2.9-5.2-4.9-7.3c-2.1-2.1-4.6-3.8-7.3-4.9C29.2,0.6,26.2,0,23,0c-3.2,0-6.2,0.6-9,1.8
		c-2.8,1.2-5.2,2.9-7.3,4.9C4.6,8.8,2.9,11.3,1.8,14C0.6,16.8,0,19.8,0,23c0,3.2,0.6,6.2,1.8,9c1.2,2.8,2.9,5.2,4.9,7.3
		c2.1,2.1,4.6,3.8,7.3,4.9c2.8,1.2,5.8,1.8,9,1.8c3.2,0,6.2-0.6,9-1.8c2.8-1.2,5.2-2.9,7.3-4.9c2.1-2.1,3.8-4.6,4.9-7.3
		c1.2-2.8,1.8-5.8,1.8-9C46,19.8,45.4,16.8,44.2,14z M18,11.3h-1.6c-0.9,0-1.5,0.3-2,0.8c-0.4,0.5-0.7,1.6-0.7,3.3v1.8v12.2v1.6
		c0,1.7,0.2,2.8,0.7,3.3c0.4,0.5,1.1,0.8,2,0.8H18v1.9h-2.9c-1.4,0-2.5-0.4-3.3-1.2c-0.8-0.8-1.2-2.4-1.2-4.7V29
		c0-1.4-0.3-2.6-0.9-3.4c-0.6-0.9-1.5-1.3-2.7-1.3v-2.1c1.2,0,2.1-0.4,2.7-1.3c0.6-0.9,0.9-2,0.9-3.4v-2.1c0-2.2,0.4-3.8,1.2-4.6
		c0.8-0.8,1.9-1.3,3.3-1.3H18V11.3z M35.9,30.9c0,2.3-0.4,3.8-1.2,4.7c-0.8,0.8-1.9,1.2-3.3,1.2h-2.9v-1.9h1.6c0.9,0,1.5-0.2,2-0.8
		c0.4-0.5,0.7-1.6,0.7-3.3V9.5h3.1V30.9z"/>
</g>
</svg>
